<svg xmlns="http://www.w3.org/2000/svg" width="458" height="240.002" viewBox="0 0 458 240.002">
    <g>
        <path d="M90.043 2.764c20.043.328 41.729-5.252 59.471-18.055L162.986-.518h55.2L182.372-40.9c14.129-18.712 21.686-44.974 22.014-75.832h-44.029a82.894 82.894 0 0 1-10.186 39.722l-34.5-39.393 12.486-8.864c19.386-14.116 30.557-32.5 30.229-54.494.329-30.53-23-56.136-61.114-56.464-39.1.328-65.386 27.575-65.057 61.716-.329 20.682 9.2 38.08 20.371 52.853-24.643 17.07-41.4 33.156-41.4 59.418 0 36.438 29.9 65.331 78.857 65.002zM63.1-65.517c.329-9.52 6.243-17.727 16.757-25.277l40.414 43.661c-8.871 4.6-18.071 7.222-26.943 7.222-18.399-.001-29.899-10.506-30.228-25.606zm13.8-108.332c.329-10.5 8.214-19.04 20.371-19.04 12.814 0 19.714 8.535 19.714 17.07 0 7.879-4.271 15.757-15.771 22.979l-10.843 6.894c-8.214-9.848-13.142-19.04-13.471-27.903z" transform="translate(129.814 236.722)" style="fill:none;stroke:#000;opacity:.2"/>
    </g>
</svg>
